<?xml version="1.0" encoding="utf-8"?>
<!-- Generator: Adobe Illustrator 22.1.0, SVG Export Plug-In . SVG Version: 6.00 Build 0)  -->
<svg version="1.1" id="Livello_1" xmlns="http://www.w3.org/2000/svg" xmlns:xlink="http://www.w3.org/1999/xlink" x="0px" y="0px"
	 viewBox="0 0 489 131" style="enable-background:new 0 0 489 131;" xml:space="preserve">
<style type="text/css">
	.st0{fill:#FFF8E8;}
</style>
<title>GUCCI 1955 HORSEBIT</title>
<desc>Created with Sketch.</desc>
<g>
	<path class="st0" d="M112.7,26c-1.3,0.5-2.3,1.4-2.8,2.6c-0.6,1.2-0.8,2.4-0.8,3.5v18.7l-3.7-4.4c-1.8,2.1-4,3.7-6.4,4.9
		c-2.5,1.1-5.2,1.7-8.1,1.7c-4.4,0-8.3-1-11.7-3.1c-3.4-2.1-6.1-5-8-8.8c-1.9-3.8-2.9-8.2-2.9-13.2c0-5,0.9-9.4,2.8-13.1
		c1.8-3.7,4.4-6.6,7.7-8.6c3.3-2,7.1-3,11.3-3c2.5,0,4.9,0.4,7,1.2c2.2,0.8,4,1.8,5.4,3.2l3.3-3.8l2.5,14.8
		c-2.5-3.8-5.2-6.5-8.3-8.3s-6.1-2.6-9.3-2.6c-3.4,0-6.4,0.8-8.9,2.5c-2.5,1.6-4.4,4-5.8,7s-2,6.6-2,10.6c0,4.1,0.7,7.7,2.2,10.8
		c1.4,3.1,3.5,5.4,6.1,7.1c2.6,1.7,5.7,2.5,9.2,2.5c2.5,0,4.9-0.5,7.2-1.6c2.3-1,4.1-2.6,5.4-4.8V31.6c0-1.1-0.3-2.2-0.8-3.3
		c-0.6-1.1-1.5-1.9-2.8-2.4H112.7z"/>
	<path class="st0" d="M125.4,48.8c-2.9-2.6-4.3-6.5-4.3-11.7V9.7c0-1.2-0.3-2.3-0.8-3.5c-0.6-1.2-1.5-2.1-2.8-2.6h12.9
		c-1.3,0.5-2.3,1.4-2.8,2.6c-0.6,1.2-0.8,2.4-0.8,3.5v26.8c0,3.9,1,6.9,2.9,8.8c2,1.9,5.1,2.9,9.3,2.9c4.2,0,7.3-1,9.3-2.9
		c2-1.9,2.9-4.9,2.9-8.7V9.7c0-1.2-0.3-2.3-0.8-3.5c-0.6-1.2-1.5-2.1-2.8-2.6h12.9c-1.3,0.5-2.3,1.4-2.8,2.6
		c-0.6,1.2-0.8,2.4-0.8,3.5v27.5c0,5.1-1.5,9-4.5,11.7c-3,2.6-7.4,4-13.3,4C132.8,52.7,128.3,51.4,125.4,48.8z"/>
	<path class="st0" d="M206.2,40c-1.3,3.7-3.6,6.7-6.8,9.1c-3.2,2.4-7.1,3.6-11.7,3.6s-8.5-1-11.9-3c-3.4-2-5.9-4.9-7.7-8.6
		c-1.8-3.7-2.6-8.2-2.6-13.2c0-5,0.9-9.4,2.6-13.1s4.2-6.6,7.4-8.6c3.2-2,7-3,11.3-3c2.2,0,4.4,0.4,6.6,1.2c2.2,0.8,4,1.8,5.5,3.1
		l3.2-3.7l2.4,14.5c-2.4-3.5-5.1-6.2-8.1-7.9c-3-1.8-6-2.7-9-2.7c-5.1,0-9.1,1.8-11.8,5.5c-2.8,3.7-4.1,8.7-4.1,15
		c0,6.3,1.4,11.2,4.2,14.7c2.8,3.5,6.9,5.3,12.1,5.3c3.7,0,6.8-0.9,9.3-2.8c2.5-1.9,4.4-4.7,5.6-8.4L206.2,40z"/>
	<path class="st0" d="M251,40c-1.3,3.7-3.6,6.7-6.8,9.1c-3.2,2.4-7.1,3.6-11.7,3.6s-8.5-1-11.9-3c-3.4-2-5.9-4.9-7.7-8.6
		c-1.8-3.7-2.6-8.2-2.6-13.2c0-5,0.9-9.4,2.6-13.1s4.2-6.6,7.4-8.6c3.2-2,7-3,11.3-3c2.2,0,4.4,0.4,6.6,1.2s4,1.8,5.5,3.1l3.2-3.7
		l2.4,14.5c-2.4-3.5-5.1-6.2-8.1-7.9c-3-1.8-6-2.7-9-2.7c-5.1,0-9.1,1.8-11.8,5.5c-2.8,3.7-4.1,8.7-4.1,15c0,6.3,1.4,11.2,4.2,14.7
		c2.8,3.5,6.9,5.3,12.1,5.3c3.7,0,6.8-0.9,9.3-2.8c2.5-1.9,4.4-4.7,5.6-8.4L251,40z"/>
	<path class="st0" d="M259.1,49.8c0.6-1.2,0.8-2.2,0.8-3.3V9.3c0-1.1-0.3-2.2-0.8-3.3c-0.6-1.1-1.5-1.9-2.8-2.4h12.9
		c-1.3,0.5-2.3,1.3-2.8,2.4c-0.6,1.1-0.8,2.2-0.8,3.3v37.2c0,1,0.3,2.1,0.8,3.3c0.6,1.2,1.5,2,2.8,2.5h-12.9
		C257.6,51.8,258.5,51,259.1,49.8z"/>
	<path class="st0" d="M294.2,49.8c0.6-1.2,0.8-2.2,0.8-3.3V10.8c-1.3,0-3.1,0.1-5.5,0.1c1.7-0.7,3.3-1.9,4.8-3.4
		c1.5-1.5,2.7-2.9,3.4-4.3h2.8v43.4c0,1,0.3,2.1,0.8,3.3c0.6,1.2,1.5,2,2.8,2.5h-12.9C292.7,51.8,293.6,51,294.2,49.8z"/>
	<path class="st0" d="M337.4,6.1c2.7,1.9,4.7,4.5,6,7.6c1.3,3.1,2,6.4,2,10c0,5.6-1,10.6-2.9,15c-2,4.4-4.9,7.8-8.9,10.4
		c-4,2.5-8.8,3.8-14.6,3.8c-0.7,0-1.8,0-3.3-0.1l-1.3-8.2c1.7,2.2,4,3.3,6.7,3.3c3.3,0,6.3-0.8,9.1-2.5c2.8-1.6,5-4,6.8-7
		c1.8-3,2.8-6.6,3.1-10.6c-1.2,2.7-2.9,4.8-5.3,6.3c-2.4,1.5-5.1,2.3-8.3,2.3c-3.1,0-5.8-0.7-8.2-2.1c-2.4-1.4-4.2-3.3-5.5-5.8
		c-1.3-2.4-2-5.2-2-8.4s0.7-6,2-8.5c1.4-2.5,3.3-4.6,5.9-6c2.6-1.5,5.7-2.2,9.2-2.2C331.5,3.2,334.7,4.2,337.4,6.1z M336,29.2
		c2.2-2.1,3.5-4.7,3.6-7.9c-0.1-2.4-0.7-4.7-1.7-6.8c-1-2.1-2.3-3.8-4.1-5c-1.7-1.3-3.8-1.9-6.1-1.9c-3.7,0-6.6,1.1-8.6,3.4
		c-2,2.3-3,5.3-3,8.9s1,6.6,3,8.9c2,2.3,4.9,3.4,8.6,3.4C331.1,32.3,333.8,31.3,336,29.2z"/>
	<path class="st0" d="M351.8,52.2l-1.9-8.3c1.2,1.5,2.5,2.7,4,3.4c1.5,0.7,3.7,1.1,6.4,1.1c3.2,0,6.1-0.7,8.6-2.1
		c2.5-1.4,4.4-3.2,5.8-5.6c1.4-2.3,2-4.9,2-7.7c0-3.2-0.9-5.7-2.6-7.4c-1.8-1.8-4.2-2.6-7.3-2.6h-13.7V3.5h24.1l1.9,8
		c-1-1.2-1.9-2.1-2.8-2.7c-0.9-0.6-2.1-1-3.5-1L358.3,8v10.5h9.8c4.6,0,8.1,1.3,10.5,4c2.4,2.6,3.7,6.2,3.7,10.5
		c0,3.5-0.9,6.8-2.8,9.8c-1.9,3-4.5,5.4-7.8,7.3c-3.4,1.8-7.2,2.7-11.6,2.7C357,52.8,354.2,52.6,351.8,52.2z"/>
	<path class="st0" d="M389.2,52.2l-1.9-8.3c1.2,1.5,2.5,2.7,4,3.4s3.7,1.1,6.4,1.1c3.2,0,6.1-0.7,8.6-2.1c2.5-1.4,4.4-3.2,5.8-5.6
		c1.4-2.3,2-4.9,2-7.7c0-3.2-0.9-5.7-2.6-7.4c-1.8-1.8-4.2-2.6-7.3-2.6h-13.7V3.5h24.1l1.9,8c-1-1.2-1.9-2.1-2.8-2.7
		c-0.9-0.6-2.1-1-3.5-1L395.7,8v10.5h9.8c4.6,0,8.1,1.3,10.5,4c2.4,2.6,3.7,6.2,3.7,10.5c0,3.5-0.9,6.8-2.8,9.8
		c-1.9,3-4.5,5.4-7.8,7.3c-3.4,1.8-7.2,2.7-11.6,2.7C394.3,52.8,391.6,52.6,389.2,52.2z"/>
	<path class="st0" d="M45.2,124.9c0.6,1.2,1.5,2,2.8,2.5H35.2c1.3-0.5,2.3-1.4,2.8-2.5c0.6-1.2,0.8-2.3,0.8-3.4V99.8
		c-1.8-2.2-3.8-3.3-6.1-3.3c-0.8,0-1.6,0.1-2.6,0.4c-0.9,0.3-2.1,0.7-3.5,1.2c-1.4,0.6-2.6,1-3.6,1.3c-1,0.3-1.9,0.4-2.7,0.4
		c-1.2,0-2.4-0.2-3.4-0.6c-1-0.4-1.9-1.1-2.7-2.1v24.5c0,1.1,0.3,2.2,0.8,3.4c0.6,1.2,1.5,2,2.8,2.5H5c1.3-0.5,2.3-1.4,2.8-2.5
		c0.6-1.2,0.8-2.3,0.8-3.4V84.8c0-1.2-0.3-2.3-0.8-3.5c-0.6-1.2-1.5-2.1-2.8-2.6h12.9c-1.3,0.5-2.3,1.4-2.8,2.6
		c-0.6,1.2-0.8,2.4-0.8,3.5v7.4c0.8,1.1,1.6,1.9,2.5,2.4c0.9,0.5,1.9,0.7,3.1,0.7c0.7,0,1.6-0.1,2.5-0.4c0.9-0.3,2-0.7,3.3-1.2
		c1.5-0.6,2.8-1,3.8-1.3c1-0.3,2-0.5,2.9-0.5c2.7,0,4.9,1,6.6,3.1V84.8c0-1.2-0.3-2.3-0.8-3.5c-0.6-1.2-1.5-2.1-2.8-2.6h12.9
		c-1.3,0.5-2.3,1.4-2.8,2.6c-0.6,1.2-0.8,2.4-0.8,3.5v36.8C44.4,122.6,44.7,123.7,45.2,124.9z"/>
	<path class="st0" d="M64.1,124.9c-3.3-2-5.8-4.9-7.6-8.6c-1.8-3.7-2.7-8.1-2.7-13.2c0-5,0.9-9.4,2.7-13.2c1.8-3.7,4.3-6.6,7.6-8.6
		c3.3-2,7.1-3,11.6-3c4.4,0,8.3,1,11.6,3c3.3,2,5.8,4.9,7.6,8.6c1.8,3.7,2.7,8.1,2.7,13.2c0,5-0.9,9.4-2.7,13.2
		c-1.8,3.7-4.3,6.6-7.6,8.6c-3.3,2-7.1,3-11.6,3C71.2,127.9,67.4,126.9,64.1,124.9z M87.5,118c2.8-3.5,4.2-8.5,4.2-14.9
		c0-6.4-1.4-11.3-4.2-14.8c-2.8-3.5-6.7-5.3-11.8-5.3s-9,1.7-11.8,5.2c-2.8,3.5-4.2,8.5-4.2,14.9c0,6.4,1.4,11.4,4.2,14.9
		c2.8,3.5,6.7,5.3,11.8,5.3S84.7,121.5,87.5,118z"/>
	<path class="st0" d="M134.4,124.7c0-0.7-0.2-1.4-0.6-2.1L121,98.2h-8.8v23.4c0,1,0.3,2.1,0.9,3.3c0.6,1.2,1.6,2.1,2.9,2.6h-13
		c1.3-0.5,2.3-1.4,2.8-2.5c0.6-1.2,0.8-2.3,0.8-3.4V84.8c0-1.2-0.3-2.3-0.8-3.5c-0.6-1.2-1.5-2.1-2.8-2.6h26.7
		c7.7,0,11.5,3.3,11.5,9.8c0,3-1.1,5.2-3.4,6.9c-2.3,1.6-5,2.4-8.2,2.4h-3.1l13.5,24.8c0.5,0.9,1.1,1.8,2,2.7c0.9,0.9,2,1.6,3.3,2.2
		h-13.1C133.6,126.9,134.4,125.9,134.4,124.7z M112.2,94H129c2.1,0,3.7-0.4,4.9-1.4c1.2-0.9,1.7-2.3,1.7-4.1c0-3.7-2.2-5.5-6.5-5.5
		h-16.9V94z"/>
	<path class="st0" d="M173.6,102c1.9,1.3,3.6,3,5,5.1c1.5,2.2,2.2,4.8,2.2,7.8c0,4-1.4,7.2-4.3,9.5c-2.9,2.3-6.6,3.5-11.3,3.5
		c-4.7,0-8.9-1.3-12.8-4l-2.8,3.4l-2.7-14.4c2.6,3.7,5.3,6.4,8,8.1c2.7,1.6,5.8,2.5,9.3,2.5c3.5,0,6.2-0.8,8.2-2.4
		c1.9-1.6,2.9-3.7,2.9-6.3c0-2.1-0.6-4-1.7-5.5c-1.1-1.6-2.5-2.9-4.1-4c-1.6-1.1-3.9-2.4-6.7-4l-1.9-1c-2.6-1.4-4.6-2.6-6.1-3.6
		c-1.5-1-2.8-2.3-3.8-3.7c-1-1.5-1.5-3.2-1.5-5.3c0-3,1.2-5.4,3.5-7.1c2.3-1.7,5.2-2.6,8.8-2.6c2.1,0,4.1,0.3,6,0.9
		c1.9,0.6,3.6,1.4,5,2.5l2.8-3.5l2.8,13.2c-1.9-2.8-4.3-5-7.1-6.5c-2.8-1.5-5.6-2.3-8.4-2.3c-2.5,0-4.3,0.5-5.7,1.4
		c-1.3,0.9-2,2.3-2,3.9c0,1.7,0.7,3.1,2,4.3c1.4,1.2,3.5,2.6,6.4,4.1l2.2,1.2C169,99.1,171.7,100.7,173.6,102z"/>
	<path class="st0" d="M219.4,121.9c1-0.8,2-1.8,2.9-3l-2.1,8.6h-33.6c1.3-0.5,2.3-1.4,2.8-2.5c0.6-1.2,0.8-2.3,0.8-3.4V84.8
		c0-1.2-0.3-2.3-0.8-3.5c-0.6-1.2-1.5-2.1-2.8-2.6H217l1.9,8c-1-1.2-2-2.1-2.9-2.7c-0.9-0.6-2.1-1-3.5-1l-16.6,0.1v10.5H215
		c0.6,0,1.3-0.1,1.9-0.3c0.6-0.2,1-0.5,1.3-0.8l2,8.3c-0.9-1.2-1.8-1.9-2.6-2.3s-2-0.5-3.4-0.5h-18.3v24.8l19.8,0.1
		C217.2,123,218.4,122.6,219.4,121.9z"/>
	<path class="st0" d="M265.2,101.1c2.1,2.5,3.1,5.6,3.1,9.6c0,3.7-0.9,6.7-2.6,9.3c-1.7,2.5-4.1,4.4-7,5.7c-2.9,1.3-6.2,1.9-9.7,1.9
		h-21.2c1.3-0.5,2.3-1.4,2.8-2.5c0.6-1.2,0.8-2.3,0.8-3.4V84.8c0-1.2-0.3-2.3-0.8-3.5c-0.6-1.2-1.5-2.1-2.8-2.6h23.7
		c4.1,0,7.3,0.7,9.7,2c2.4,1.3,3.6,3.6,3.6,6.9c0,2.3-0.8,4.1-2.3,5.6c-1.6,1.5-3.5,2.4-5.7,2.8C260.3,96.9,263.1,98.6,265.2,101.1z
		 M237,83.1v10.5h15.6c1.8,0,3.4-0.4,4.7-1.4c1.3-0.9,2-2.3,2-4.2c0-1.9-0.6-3.2-1.8-3.9c-1.2-0.7-2.8-1.1-4.8-1.1H237z
		 M258.7,119.8c2.5-2.2,3.8-5.5,3.8-9.7c0-2.4-0.5-4.4-1.6-6.2c-1.1-1.8-2.5-3.2-4.3-4.2c-1.8-1-3.8-1.5-6-1.5H237v25h12
		C252.9,123.1,256.1,122,258.7,119.8z"/>
	<path class="st0" d="M276.1,125c0.6-1.2,0.8-2.2,0.8-3.3V84.4c0-1.1-0.3-2.2-0.8-3.3c-0.6-1.1-1.5-1.9-2.8-2.4h12.9
		c-1.3,0.5-2.3,1.3-2.8,2.4c-0.6,1.1-0.8,2.2-0.8,3.3v37.2c0,1,0.3,2.1,0.8,3.3c0.6,1.2,1.5,2,2.8,2.5h-12.9
		C274.6,126.9,275.5,126.1,276.1,125z"/>
	<path class="st0" d="M330.4,87.2c-2.2-2.7-4.5-4-6.9-4h-10.5v38.4c0,1.1,0.3,2.2,0.8,3.4c0.6,1.2,1.5,2,2.8,2.5h-12.9
		c1.3-0.5,2.3-1.4,2.8-2.5c0.6-1.2,0.8-2.3,0.8-3.4V83.1h-10.6c-2.4,0-4.7,1.3-6.9,4l1.9-8.5h36.6L330.4,87.2z"/>
	<path class="st0" d="M387,101.1c2.1,2.5,3.1,5.6,3.1,9.6c0,3.7-0.9,6.7-2.6,9.3c-1.7,2.5-4.1,4.4-7,5.7c-2.9,1.3-6.2,1.9-9.7,1.9
		h-21.2c1.3-0.5,2.3-1.4,2.8-2.5c0.6-1.2,0.8-2.3,0.8-3.4V84.8c0-1.2-0.3-2.3-0.8-3.5c-0.6-1.2-1.5-2.1-2.8-2.6h23.7
		c4.1,0,7.3,0.7,9.7,2c2.4,1.3,3.6,3.6,3.6,6.9c0,2.3-0.8,4.1-2.3,5.6c-1.6,1.5-3.5,2.4-5.7,2.8C382.1,96.9,384.9,98.6,387,101.1z
		 M358.8,83.1v10.5h15.6c1.8,0,3.4-0.4,4.7-1.4c1.3-0.9,2-2.3,2-4.2c0-1.9-0.6-3.2-1.8-3.9c-1.2-0.7-2.8-1.1-4.8-1.1H358.8z
		 M380.5,119.8c2.5-2.2,3.8-5.5,3.8-9.7c0-2.4-0.5-4.4-1.6-6.2c-1.1-1.8-2.5-3.2-4.3-4.2c-1.8-1-3.8-1.5-6-1.5h-13.6v25h12
		C374.7,123.1,377.9,122,380.5,119.8z"/>
	<path class="st0" d="M426.9,125.4c0.5-0.9,0.7-1.9,0.7-2.9c0-0.5,0-0.8-0.1-1l-4.2-22.6h-17.8l-4.2,22.6c0,0.2-0.1,0.5-0.1,0.9
		c0,1,0.2,2,0.7,2.9c0.5,0.9,1.3,1.6,2.4,2h-12.6c1.5-0.5,2.5-1.3,3.1-2.4c0.6-1.1,1-2.3,1.2-3.5l7.4-37.8l0.1-0.6
		c0-0.9-0.3-1.7-0.9-2.5c-0.6-0.8-1.4-1.4-2.6-1.9h28.9c-1.2,0.5-2.1,1.1-2.7,1.9c-0.6,0.8-0.9,1.6-0.9,2.5c0,0.3,0,0.6,0.1,0.7
		l7.4,37.8c0.2,1.1,0.6,2.2,1.4,3.4c0.7,1.2,1.8,2,3.1,2.5h-12.6C425.6,127,426.4,126.4,426.9,125.4z M406.2,94.6h16.2L420.3,83
		h-11.9L406.2,94.6z"/>
	<path class="st0" d="M483.3,101.1c-1.3,0.5-2.3,1.4-2.8,2.6c-0.6,1.2-0.8,2.4-0.8,3.5v18.7l-3.7-4.4c-1.8,2.1-4,3.7-6.4,4.9
		c-2.5,1.1-5.2,1.7-8.1,1.7c-4.4,0-8.3-1-11.7-3.1c-3.4-2.1-6.1-5-8-8.8c-1.9-3.8-2.9-8.2-2.9-13.2c0-5,0.9-9.4,2.8-13.1
		c1.8-3.7,4.4-6.6,7.7-8.6c3.3-2,7.1-3,11.3-3c2.5,0,4.9,0.4,7,1.2c2.2,0.8,4,1.8,5.4,3.2l3.3-3.8l2.5,14.8
		c-2.5-3.8-5.2-6.5-8.3-8.3c-3-1.7-6.1-2.6-9.3-2.6c-3.4,0-6.4,0.8-8.9,2.5c-2.5,1.6-4.4,4-5.8,7s-2,6.6-2,10.6
		c0,4.1,0.7,7.7,2.2,10.8c1.4,3.1,3.5,5.4,6.1,7.1c2.6,1.7,5.7,2.5,9.2,2.5c2.5,0,4.9-0.5,7.2-1.6c2.3-1,4.1-2.6,5.4-4.8v-10.1
		c0-1.1-0.3-2.2-0.8-3.3c-0.6-1.1-1.5-1.9-2.8-2.4H483.3z"/>
</g>
</svg>
